<?xml version="1.0" encoding="utf-8" ?>
<svg xmlns="http://www.w3.org/2000/svg" xmlns:xlink="http://www.w3.org/1999/xlink" width="564" height="423">
	<path d="M405.396 202.868C406.166 208.115 406.385 225.812 405.119 230.64C404.327 221.992 404.794 211.579 405.396 202.868Z"/>
	<path d="M169.916 131.49C170.221 129.696 170.505 127.818 171.019 126.073C173.655 117.119 183.033 119.278 189.844 115.845C194.73 113.383 197.508 108.18 200.685 103.981C202.168 102.022 203.81 100.172 205.477 98.3704C211.021 92.3815 217.998 87.0657 225.201 83.2348C247.572 71.3368 276.425 69.3895 301.108 73.7411C308.602 75.0624 315.869 77.2482 323.135 79.4625C339.373 84.4102 356.645 93.7307 364.894 109.222C366.948 109.382 368.831 109.631 370.798 110.256C375.732 111.823 378.55 114.206 380.886 118.765C385.876 116.548 391.419 114.894 396.711 113.552C404.394 111.602 424.018 106.875 430.684 110.979C432.664 112.198 433.849 114.204 434.338 116.434C437.189 129.444 421.812 156.411 414.66 167.393L411.835 171.605C408.857 176.029 405.914 180.608 402.594 184.784C403.85 189.319 405.525 198.278 405.396 202.868C404.794 211.579 404.327 221.992 405.119 230.64C405.056 232.3 404.895 233.884 404.615 235.522C412.604 235.136 434.689 233.416 440.571 238.92C441.134 239.448 441.503 240.058 441.524 240.843C441.544 241.596 441.246 242.426 440.714 242.963C438.387 245.309 431.584 244.625 428.527 244.476C423.8 244.246 419.147 243.193 414.423 242.982C411.07 242.833 407.894 243.424 404.575 243.529C404.219 245.088 403.912 246.684 403.383 248.194C411.137 248.283 432.383 247.801 437.947 253.372C438.25 253.675 438.455 253.969 438.526 254.398C438.306 255.146 438.164 255.448 437.466 255.857C436.038 256.695 432.536 256.469 430.829 256.542C421.211 256.951 411.716 257.141 402.143 255.853C402.047 258.158 401.564 260.357 401.375 262.641C400.69 268.258 399.822 273.878 398.171 279.302C397.412 282.639 396.355 285.908 395.254 289.146L393.982 292.664C392.15 298.409 389.73 304.088 387.589 309.73C385.804 314.432 384.232 319.505 381.976 323.997C380.907 326.123 379.636 328.161 378.019 329.917C369.181 339.515 341.967 344.689 328.926 346.583C325.014 347.151 321.069 347.39 317.151 347.899C311.893 348.582 306.674 349.54 301.403 350.141C296.344 350.719 291.213 350.928 286.124 351.088C278.398 351.331 270.582 350.803 262.849 350.692C239.2 350.353 233.467 352.195 211.482 340.68C206.089 337.855 200.28 334.814 195.834 330.584C182.837 318.218 172.746 287.028 169.744 269.535C168.699 263.445 168.364 257.404 168.19 251.235C157.531 253.087 148.107 258.337 137.498 260.279C138.085 257.9 138.754 255.986 140.323 254.059C145.668 247.496 160.128 243.999 168.323 243.121L168.302 238.519C163.588 238.451 158.938 237.452 154.201 237.736C147.599 238.132 141.233 239.747 134.571 239.55C133.985 239.17 134.026 239.188 133.86 238.505C134.233 237.313 135.043 236.4 135.943 235.567C143.195 228.857 159.043 230.26 168.317 230.554C168.582 226.768 168.286 222.903 168.814 219.145C165.31 217.739 162.626 214.795 160.144 212.029C146.538 196.869 121.826 152.835 122.889 132.989C122.931 132.925 122.972 132.859 123.016 132.796C123.089 132.69 123.165 132.586 123.238 132.48C124.307 130.928 125.633 129.999 127.344 129.23C135.459 125.579 151.307 128.024 159.913 129.386C163.232 129.911 166.767 130.287 169.916 131.49ZM398.171 279.302C399.822 273.878 400.69 268.258 401.375 262.641L401.247 262.274C401.05 261.701 400.9 261.116 400.746 260.53L400.603 260.747L400.593 260.111C400.282 262.261 400.076 264.444 399.69 266.581C398.895 270.984 397.923 274.773 398.171 279.302ZM411.835 171.605L414.66 167.393C414.634 167.336 414.606 167.279 414.58 167.221C414.316 166.634 414.259 166.367 414.379 165.737C412.972 166.879 412.177 168.759 411.395 170.352C411.409 170.91 411.532 171.141 411.835 171.605ZM393.982 292.664L395.254 289.146C394.942 288.543 394.384 287.677 394.5 286.997C394.599 288.883 392.919 289.899 393.192 292.134L393.543 292.428L393.747 292.362L393.982 292.664Z"/>
	<path d="M393.982 292.664L393.747 292.362L393.543 292.428L393.192 292.134C392.919 289.899 394.599 288.883 394.5 286.997C394.384 287.677 394.942 288.543 395.254 289.146L393.982 292.664Z"/>
	<path d="M411.835 171.605C411.532 171.141 411.409 170.91 411.395 170.352C412.177 168.759 412.972 166.879 414.379 165.737C414.259 166.367 414.316 166.634 414.58 167.221C414.606 167.279 414.634 167.336 414.66 167.393L411.835 171.605Z"/>
	<path d="M398.171 279.302C397.923 274.773 398.895 270.984 399.69 266.581C400.076 264.444 400.282 262.261 400.593 260.111L400.603 260.747L400.746 260.53C400.9 261.116 401.05 261.701 401.247 262.274L401.375 262.641C400.69 268.258 399.822 273.878 398.171 279.302Z"/>
	<path fill="#FEFEFE" d="M396.215 220.495C396.785 220.949 397.109 221.601 397.412 222.251C398.417 224.414 398.673 227.034 397.778 229.282C397.225 230.671 396.61 231.034 395.317 231.614C394.793 231.612 394.446 231.542 394.038 231.21C393.529 230.796 393.319 230.177 393.242 229.543C392.891 226.662 394.516 222.735 396.215 220.495Z"/>
	<path fill="#FEFEFE" d="M189.502 178.246C189.624 178.271 189.747 178.293 189.869 178.322C192.474 178.943 195.54 181.797 196.898 184.058C197.824 185.6 197.794 186.367 197.365 188.027C196.897 188.195 196.48 188.334 195.976 188.328C194.569 188.311 193.227 187.571 192.28 186.566C190.136 184.292 189.441 181.272 189.502 178.246Z"/>
	<path fill="#FEFEFE" d="M370.7 311.271L371.213 311.342C371.888 311.862 372.093 311.86 372.245 312.728C372.028 313.425 371.779 313.872 371.243 314.382C368.347 317.145 363.634 317.484 359.867 317.507C359.223 317.372 359.088 317.429 358.668 316.894C358.754 316.609 358.745 316.577 358.939 316.289C360.786 313.531 367.549 311.853 370.7 311.271Z"/>
	<path fill="#FEFEFE" d="M301.355 335.542C305.281 335.34 307.41 335.893 310.902 337.625C310.5 338.508 310.105 339.573 309.353 340.215C308.038 341.339 306.344 340.983 304.763 340.834C301.743 340.537 297.851 340.294 295.126 338.898C294.551 338.604 294.275 338.455 294.081 337.833C294.138 337.728 294.182 337.615 294.25 337.517C295.219 336.109 299.836 335.699 301.355 335.542Z"/>
	<path fill="#FEFEFE" d="M404.015 140.19C404.883 140.682 405.686 141.69 406.402 142.396C406.103 143.746 405.829 145.167 405.193 146.405C403.405 149.884 400.353 151.129 396.803 152.25C396.352 152.282 395.894 152.242 395.442 152.224C394.732 151.789 394.627 151.846 394.405 151.003C395.368 146.763 400.577 142.547 404.015 140.19Z"/>
	<path fill="#FEFEFE" d="M207.914 289.517C209.778 289.915 211.748 291.182 213.227 292.344C216.902 295.231 219.38 298.788 219.91 303.459C216.806 302.451 213.679 301.153 211.282 298.864C208.506 296.214 208.038 293.202 207.914 289.517Z"/>
	<path fill="#FEFEFE" d="M219.042 324.62C219.41 324.676 219.772 324.749 220.134 324.827C223.674 325.59 232.185 327.991 233.902 331.14C234.349 331.959 234.083 332.364 233.801 333.167C231.866 333.767 230.05 333.944 228.048 333.622C225.086 333.144 221.867 331.624 220.106 329.113C219.068 327.634 218.732 326.4 219.042 324.62Z"/>
	<path fill="#FEFEFE" d="M155.08 180.237C156.141 180.371 157.13 180.763 158.069 181.266C161.262 182.974 166.284 186.989 167.245 190.652C167.502 191.634 167.551 192.46 167.024 193.339C166.414 193.649 165.799 193.932 165.099 193.907C162.896 193.827 160.878 192.123 159.463 190.58C156.782 187.66 154.912 184.262 155.08 180.237Z"/>
	<path fill="#FEFEFE" d="M188.466 219.588C191.043 220.448 193.161 223.467 195.445 224.964C198.9 227.227 203.118 227.873 206.173 230.818C206.685 231.84 206.528 232.946 206.489 234.059C203.412 234.142 200.373 233.625 197.685 232.065C192.961 229.324 189.807 224.802 188.466 219.588Z"/>
	<path fill="#FEFEFE" d="M255.428 321.34L259.584 321.253C263.026 321.201 269.1 320.771 271.665 323.478C272.279 324.126 272.633 325.027 272.587 325.922C272.547 326.728 272.38 327.439 271.787 327.976C267.575 328.362 260.846 328.285 256.936 326.478C255.998 326.045 255.09 325.371 254.752 324.354C254.376 323.224 254.943 322.333 255.428 321.34Z"/>
	<path fill="#FEFEFE" d="M239.171 172.494Q241.302 172.21 243.45 172.279C247.649 172.429 253.827 174.611 256.615 177.86C257.159 178.494 257.777 179.511 257.654 180.385C257.563 181.029 257.299 181.116 256.833 181.484C254.723 181.959 252.936 180.742 251.109 179.838C248.996 178.675 247.037 177.315 244.871 176.223C240.013 176.799 235.049 176.75 230.162 176.762C232.73 174.223 235.645 173.045 239.171 172.494Z"/>
	<path fill="#FEFEFE" d="M181.263 259.036C182.07 259.23 182.615 259.521 183.145 260.181C185.577 263.21 189.39 275.011 188.598 278.704C188.43 279.489 188.054 279.677 187.443 280.082C186.784 279.9 186.155 279.699 185.623 279.249C182.169 276.328 180.05 270.083 179.623 265.725C179.373 263.186 179.612 261.065 181.263 259.036Z"/>
	<path fill="#FEFEFE" d="M333.265 321.176C333.513 321.132 333.762 321.09 334.014 321.08C334.801 321.047 335.857 321.518 336.386 322.103C336.824 322.587 337.017 323.295 336.91 323.933C336.723 325.049 335.993 325.901 335.092 326.538C330.623 329.697 322.744 329.163 317.594 328.419C316.586 328.183 315.252 327.903 314.428 327.267C313.788 326.773 313.444 326.263 313.377 325.481C313.974 324.627 314.792 324.313 315.774 324.026C318.342 323.277 321.297 323.193 323.955 322.824C327.074 322.391 330.172 321.765 333.265 321.176Z"/>
	<path fill="#FEFEFE" d="M358.421 169.186Q361.174 168.927 363.932 169.13C366.847 169.368 368.631 170.435 370.52 172.631C370.27 173.524 370.048 174.709 369.511 175.468C369.16 175.964 368.805 176.19 368.188 176.244C366.736 176.372 365.186 176.08 363.741 175.914C360.518 175.545 357.624 175.417 354.407 175.984C351.503 176.687 346.897 178.773 344.064 177.924C343.641 177.529 343.463 177.45 343.411 176.841C343.331 175.917 343.905 174.908 344.491 174.237C347.557 170.728 354.049 169.616 358.421 169.186Z"/>
	<path fill="#FEFEFE" d="M420.202 116.593Q420.653 116.592 421.087 116.716Q421.52 116.84 421.902 117.08C422.265 117.308 422.462 117.665 422.536 118.074C422.776 119.42 421.888 120.458 421.171 121.498C417.91 123.081 413.867 123.475 410.344 124.273C406.55 125.133 402.719 126.19 399.034 127.443C393.159 129.442 388.616 132.731 383.293 134.701L382.961 134.822C382.382 134.934 381.516 135.103 380.949 134.915C380.467 134.755 380.455 134.587 380.274 134.158C380.441 133.281 380.805 132.59 381.332 131.876C382.933 129.703 385.487 127.74 387.841 126.46C394.682 122.742 402.973 120.973 410.446 119.01C413.659 118.166 416.921 117.112 420.202 116.593Z"/>
	<path fill="#EE2229" d="M315.951 85.8205C326.686 88.579 337.563 94.5912 345.983 101.757C347.199 102.792 349.709 105.034 349.834 106.614C339.019 105.163 329.449 104.827 318.53 105.262C318.005 98.7495 316.436 92.3874 315.951 85.8205Z"/>
	<path fill="#FEFEFE" d="M137.328 139.137C138.437 139.021 139.599 139.038 140.71 139.101C146.999 139.454 153.197 140.938 159.249 142.603C170.278 145.638 180.962 150.114 191.651 154.164C195.885 155.768 200.456 156.886 204.489 158.949C205.812 159.626 206.673 160.527 207.65 161.618C204.592 162.62 202.087 162.682 198.914 162.364C187.619 159.183 176.477 154.978 165.358 151.214C159.737 149.312 154.124 147.35 148.337 146.004C144.924 145.21 141.397 144.62 137.883 144.728C135.371 144.806 132.165 146.287 129.791 145.59C129.38 145.112 128.945 144.637 128.844 143.991C128.754 143.421 128.944 142.878 129.29 142.426C130.931 140.283 134.819 139.494 137.328 139.137Z"/>
	<path fill="#EE2229" d="M206.319 120.469C206.585 120.466 206.719 120.61 206.941 120.746C207.206 123.943 206.99 127.293 206.998 130.507Q207.066 137.223 207.265 143.936C199.688 142.974 192.844 139.379 186.056 136.136C183.097 134.832 180.173 133.987 177.032 133.284C177.36 131.16 177.343 128.921 177.526 126.771C186.719 123.519 196.549 120.963 206.319 120.469Z"/>
	<path fill="#EE2229" d="M258.371 80.7572C258.682 81.1602 258.674 81.2764 258.603 81.8074C258.168 85.0845 256.618 88.5681 255.824 91.8175C254.625 96.7179 254.151 101.694 253.614 106.698C241.356 106.924 229.143 109.783 217.096 111.788C212.732 112.514 208.268 112.91 203.873 113.439C203.678 113.024 203.731 112.953 203.767 112.515C209.582 103.367 234.932 89.6148 245.015 85.366C249.344 83.5419 253.905 82.207 258.371 80.7572Z"/>
	<path fill="#FEFEFE" d="M364.515 187.639C366.849 187.239 369.604 187.444 371.896 188.011C377.777 189.466 382.811 193.77 385.862 198.925C387.186 201.163 388.257 203.964 387.525 206.578C386.81 209.13 384.88 210.482 382.714 211.73C376.161 211.955 369.773 210.786 363.177 211.264C359.068 211.721 355.026 212.734 350.924 213.26C348.308 213.595 344.893 213.994 342.713 212.182C341.16 210.891 340.51 208.917 340.327 206.969C340.006 203.558 341.098 200.372 343.271 197.752C348.228 191.775 356.958 188.36 364.515 187.639Z"/>
	<path d="M372.972 190.256C373.874 190.574 374.649 191.503 375.34 192.154C375.617 193.744 375.861 195.311 375.924 196.926C376.051 200.137 375.943 205.299 373.499 207.732C372.699 208.529 372.197 208.514 371.143 208.509C370.024 207.881 369.346 207.184 368.708 206.072C367.084 203.246 367.165 199.46 368.041 196.406C368.882 193.471 370.321 191.742 372.972 190.256Z"/>
	<path fill="#EE2229" d="M267.543 78.4781C272.347 79.4902 277.783 79.1999 282.706 79.7897C291.392 80.8303 300.009 82.5977 308.665 83.8755C309.076 90.9098 310.916 98.0123 312.511 104.86C309.196 105.522 305.552 105.268 302.161 105.513C297.676 104.899 292.977 104.2 288.444 104.475C284.013 104.745 279.631 105.647 275.195 105.96C269.92 106.332 264.637 106.26 259.352 106.238C259.53 100.011 263.202 90.5327 265.393 84.4925C266.118 82.4944 267 80.535 267.543 78.4781Z"/>
	<path fill="#EE2229" d="M342.1 113.356C344.583 113.509 347.137 114.143 349.585 114.599C356.7 115.923 365.361 117.141 371.403 121.382C373.635 122.949 375.113 124.815 375.552 127.561C376.124 131.136 375.721 154.883 374.592 156.477L373.697 156.53C362.239 154.443 351.156 152.03 339.472 151.435C339.646 144.218 340.64 136.955 341.26 129.765C341.73 124.319 341.857 118.817 342.1 113.356Z"/>
	<path fill="#FEFEFE" d="M233.395 185.744C240.911 185.272 249.448 186.802 255.671 191.214C260.442 194.597 264.904 200.542 265.829 206.423C266.448 210.36 265.132 213.314 262.852 216.428C256.214 217.249 250.065 215.669 243.58 214.561C233.681 213.861 224.123 215.339 214.263 215.291C212.176 213.265 210.055 211.669 209.56 208.624C208.984 205.08 210.385 201.825 212.446 199.015C217.429 192.221 225.009 187.035 233.395 185.744Z"/>
	<path d="M247.176 191.113C247.333 191.099 247.491 191.087 247.648 191.081C248.494 191.048 249.027 191.038 249.641 191.662C251.495 193.546 251.568 197.351 251.564 199.797C251.558 203.575 251.344 209.045 248.382 211.832C247.522 212.64 246.813 212.614 245.671 212.586C244.226 211.803 243.215 210.957 242.48 209.455C240.692 205.803 241.065 200.34 242.403 196.605C243.346 193.972 244.632 192.327 247.176 191.113Z"/>
	<path fill="#EE2229" d="M276.744 112.262Q306.148 112.393 335.547 112.993C334.738 119.646 333.873 126.525 333.558 133.218C333.288 138.952 333.479 144.78 333.481 150.523C328.151 150.663 322.668 148.628 317.272 148.472C312.012 148.32 306.836 149.458 301.593 149.692C294.046 150.028 286.578 149.146 279.081 148.407C276.586 136.577 276.606 124.281 276.744 112.262Z"/>
	<path fill="#EE2229" d="M263.388 112.236C265.582 112.042 267.8 112.048 270.002 111.999C269.895 115.8 270.224 119.68 270.358 123.483C270.651 131.833 271.006 140.319 271.778 148.637C261.6 149.151 251.331 150.969 241.186 151.963C237.136 152.36 233.033 152.265 228.968 152.473C226.96 152.576 223.17 153.406 221.503 152.457C218.889 149.867 216.373 146.951 213.084 145.22C212.725 136.536 213.32 127.714 213.23 119C215.813 118.431 218.521 118.237 221.131 117.711C225.84 116.764 230.474 115.502 235.207 114.663C244.681 112.983 253.785 112.467 263.388 112.236Z"/>
	<path fill="#FEFEFE" d="M299.024 155.423C301.089 155.024 303.67 155.273 305.796 155.237C309.822 155.17 313.768 155.539 316.78 158.511C321.446 163.117 323.198 172.622 323.44 178.911C323.574 182.393 323.279 185.874 323.337 189.355C323.39 192.486 323.571 195.822 324.492 198.824C325.759 202.957 328.228 207.177 330.523 210.823C336.32 220.029 343.117 228.697 353.375 233.144C361.375 236.613 371.948 236.165 378.46 242.609C382.179 246.289 383.489 251.813 383.49 256.889C383.491 270.695 378.108 284.998 368.313 294.794C364.664 298.443 360.525 300.868 355.718 302.645C349.788 304.837 343.502 305.521 337.282 306.407C328.898 307.601 320.452 308.897 311.992 309.39C306.577 309.705 301.059 309.526 295.632 309.517C277.474 309.614 250.396 306.981 234.605 297.743C225.335 292.32 216.171 279.935 213.482 269.411C212.226 264.494 212.504 259.952 215.163 255.543C221.303 245.362 235.219 242.024 245.874 238.956C250.675 237.574 255.512 236.062 260.393 234.988C264.113 234.169 267.914 233.687 271.612 232.775C274.079 232.167 276.705 231.428 278.72 229.817C284.396 225.28 288.498 212.693 288.645 205.692C288.753 200.575 287.731 195.423 287.096 190.364C286.152 182.845 286.51 175.868 287.831 168.42C288.494 164.681 289.061 161.368 291.065 158.076C293.7 156.572 295.986 155.701 299.024 155.423Z"/>
	<path d="M329.827 239.243C331.423 239.234 332.712 239.251 334.131 240.107C334.798 240.509 335.272 241.025 335.437 241.802C335.672 242.904 335.052 243.787 334.52 244.692C333.672 245.007 332.689 245.062 331.79 244.957C331.12 244.879 330.429 244.66 330.032 244.078C328.991 242.55 329.5 240.91 329.827 239.243Z"/>
	<path d="M339.714 243.951Q340.373 244.029 341.026 244.143C342.369 244.385 343.503 245.12 344.25 246.278C344.682 246.946 344.848 247.639 344.665 248.421C344.394 249.576 343.688 250.197 342.715 250.791C341.275 250.697 339.869 250.702 338.688 249.743C338.125 249.286 337.762 248.654 337.698 247.927C337.557 246.299 338.732 245.086 339.714 243.951Z"/>
	<path d="M340.181 234.968C341.989 234.998 343.802 235.068 345.271 236.288C345.839 236.76 346.219 237.363 346.27 238.112C346.354 239.362 345.63 240.268 344.872 241.171C344.806 241.203 344.741 241.237 344.674 241.267C343.71 241.706 342.193 241.884 341.196 241.434C340.369 241.06 339.84 240.338 339.559 239.494C339.115 238.16 339.527 236.18 340.181 234.968Z"/>
	<path d="M286.025 237.894C287.267 238.015 288.432 238.303 289.638 238.609C290.004 238.943 290.368 239.288 290.707 239.65C291.49 240.486 291.904 241.526 291.798 242.684C291.675 244.032 290.635 245.184 289.63 245.99C287.92 246.088 286.249 246.176 284.823 245.031C284.107 244.456 283.684 243.679 283.643 242.757C283.559 240.892 284.896 239.244 286.025 237.894Z"/>
	<path d="M284.581 247.487C285.617 247.454 286.742 247.695 287.775 247.822C288.472 248.404 289.229 249.013 289.653 249.836C289.995 250.5 290.068 251.319 289.836 252.031C289.358 253.5 287.793 254.295 286.519 254.97C286.418 254.977 286.317 254.984 286.215 254.99C284.673 255.074 282.53 255.142 281.367 253.957C280.98 253.563 280.755 252.996 280.799 252.442C280.98 250.164 282.983 248.819 284.581 247.487Z"/>
	<path d="M274.77 238.158C276.632 238.441 278.318 238.829 279.663 240.281C280.37 241.046 280.855 242.037 280.746 243.1C280.583 244.694 279.36 245.785 278.195 246.735C276.398 246.756 274.922 246.83 273.426 245.615C272.594 244.939 272.13 244.026 272.108 242.954C272.066 240.914 273.411 239.482 274.77 238.158Z"/>
	<path d="M290.254 293.123C291.317 293.176 292.439 293.255 293.443 293.628C295.658 294.451 297.86 296.297 298.855 298.461C299.671 300.234 299.627 301.54 298.982 303.312C297.266 303.933 296.129 303.777 294.396 303.41C293.921 302.971 293.449 302.528 293.011 302.052C290.684 299.519 290.091 296.472 290.254 293.123Z"/>
	<path d="M308.234 292.198C308.725 292.178 309.233 292.15 309.723 292.201C310.354 292.266 310.84 292.7 311.216 293.182C313.08 295.578 313.101 300.207 312.697 303.078C312.55 304.121 312.341 304.88 311.475 305.532C310.702 305.53 309.688 305.615 308.953 305.37C307.974 305.044 307.318 304.094 306.961 303.176C305.774 300.13 306.983 295.051 308.234 292.198Z"/>
	<path d="M326.918 288.297C327.321 288.277 327.726 288.264 328.129 288.286C329.296 288.351 330.649 288.549 331.413 289.536C332.048 290.356 332.062 291.405 331.857 292.378C331.024 296.326 327.167 300.496 323.877 302.606C323.056 302.728 322.166 302.909 321.338 302.913C320.723 302.916 320.185 302.617 319.773 302.171C319.18 301.528 319.053 300.675 319.159 299.833C319.733 295.302 323.412 290.946 326.918 288.297Z"/>
	<path d="M310.107 165.925C311.695 167.749 310.162 172.742 310.606 175.161C312.06 183.099 318.462 188.083 318.79 196.717C317.615 197.438 316.602 198.021 315.251 198.342C313.749 197.807 312.532 197.217 311.388 196.077C306.885 191.59 306.016 184.406 306.067 178.346C306.104 174.001 306.864 169.116 310.107 165.925Z"/>
	<path d="M297.584 166.405C298.693 166.516 299.767 166.821 300.847 167.088C303.476 173.303 304.225 179.534 302.608 186.153C301.683 189.944 299.825 192.643 296.506 194.683Q295.932 194.74 295.355 194.739C294.152 194.728 292.719 194.575 291.868 193.618C288.565 189.9 296.291 180.431 297.34 176.557C298.148 173.568 297.473 169.553 297.584 166.405Z"/>
	<path d="M317.44 213.59C317.637 213.564 317.676 213.553 317.904 213.56C321.146 213.666 323.964 214.783 326.239 217.093C330.547 221.467 331.607 226.759 331.522 232.659C330.848 233.986 329.946 235.36 328.817 236.344C326.602 238.275 323.759 237.826 321.087 237.592C319.125 239.139 317.231 240.429 314.97 241.516C315.018 245.098 315.299 249.026 316.651 252.373C321.348 264.001 339.106 255.068 347.441 253.205C353.575 251.833 360.991 251.239 366.881 253.818C368.62 254.58 370.854 255.842 371.573 257.689C371.528 258.355 371.542 258.693 371.05 259.179C369.31 260.896 365.939 260.999 363.679 261.073C361.722 264.722 360.721 268.769 359.061 272.55C357.608 275.86 355.55 278.533 353.444 281.425C346.983 279.02 345.845 276.555 343.27 270.385C342.66 268.922 342.029 267.39 341.089 266.103C340.061 264.696 338.924 263.976 337.213 263.689C336.402 264.284 335.325 269.049 334.799 270.281C333.448 273.452 331.486 277.03 329.23 279.645C327.785 281.32 325.8 282.881 323.495 282.974C317.147 283.231 318.654 268.82 316.643 264.242C315.712 262.121 313.297 260.294 311.628 258.737C308.253 261.787 304.868 263.61 300.806 265.59C300.554 269.208 300.143 272.532 299.13 276.027C297.605 279.932 295.941 283.478 292.848 286.393L289.854 285.835C286.17 282.15 284.642 277.176 284.026 272.113C283.8 270.253 283.768 268.331 283.057 266.579C281.589 266.539 279.826 265.977 278.414 266.139C278.305 266.152 277.904 266.235 277.839 266.275C276.689 266.987 273.389 280.678 271.073 283.424C270.405 284.216 269.505 284.842 268.441 284.901C266.483 285.009 264.392 283.444 263.038 282.15C258.707 278.009 256.729 271.209 256.625 265.374C251.393 267.448 244.915 271.084 239.294 271.385C238.296 271.438 237.683 271.406 236.915 270.74C236.805 270.422 236.708 270.144 236.757 269.803C237.075 267.593 239.693 265.019 241.29 263.621C243.884 261.35 246.804 260.02 250.061 258.933Q253.38 257.837 256.831 257.281Q260.282 256.724 263.777 256.72C274.481 256.796 292.596 262.21 301.802 255.259C306.668 251.586 307.511 246.827 308.345 241.168C304.08 240.06 301.513 238.742 298.489 235.496C297.663 236.24 297.057 236.611 295.933 236.76C294.593 236.938 293.501 236.762 292.428 235.888C290.471 234.296 289.659 231.39 289.464 228.973C289.218 225.934 289.843 222.781 291.872 220.423C296.799 214.701 310.342 214.077 317.44 213.59Z"/>
	<path fill="#FEFEFE" d="M287.583 266.716Q291.706 266.807 295.83 266.756C294.893 270.484 293.777 274.199 292.627 277.865Q292.329 279.402 291.992 280.93C291.291 278.747 290.24 276.664 289.479 274.492C288.595 271.972 288.106 269.33 287.583 266.716Z"/>
	<path fill="#FEFEFE" d="M322.503 265.5Q326.975 265.529 331.446 265.477C330.216 268.177 328.955 270.79 327.427 273.335C326.336 275.024 325.157 276.508 323.837 278.015C322.299 273.841 322.457 269.884 322.503 265.5Z"/>
	<path fill="#FEFEFE" d="M260.236 265.248C264.405 265.2 268.567 265.473 272.737 265.48C272.192 269.271 270.68 272.981 269.357 276.558C268.817 277.926 268.385 279.345 267.923 280.742C266.703 278.137 264.965 275.739 263.653 273.165C262.341 270.593 261.438 267.866 260.236 265.248Z"/>
	<path fill="#FEFEFE" d="M355.798 259.805C356.403 259.721 356.806 259.719 357.407 259.83C357.431 259.891 357.463 259.948 357.48 260.011C358.157 262.598 353.259 273.667 351.849 276.169L349.776 272.822C347.699 269.129 345.895 265.277 344.03 261.474L355.798 259.805Z"/>
	<path fill="#EE2229" d="M313.335 218.522C316.725 218.458 320.09 218.481 322.814 220.825C324.873 222.597 326.156 225.984 326.308 228.646C326.405 230.344 326.101 231.853 324.93 233.147C323.169 233.498 320.893 231.079 319.184 230.429C316.881 230.849 315.712 234.942 313.582 236.269C312.152 237.161 310.625 237.232 309.027 236.837C305.795 235.105 303.699 231.939 300.455 230.383C298.857 230.956 297.196 231.328 295.551 231.734C294.613 230.75 293.775 229.813 293.696 228.388C293.622 227.046 294.142 225.986 295.002 224.988C299.363 219.929 307.096 218.855 313.335 218.522Z"/>
</svg>
