<svg version="1.2" xmlns="http://www.w3.org/2000/svg" viewBox="0 0 319 281" width="319" height="281"><style>.a{fill:#fefefe}.b{fill:#ee2229}</style><path  d="m282.4 131.9c0.8 5.2 1 22.9-0.3 27.7-0.8-8.6-0.3-19 0.3-27.7z"/><path fill-rule="evenodd" d="m46.9 60.5c0.3-1.8 0.6-3.7 1.1-5.4 2.7-9 12-6.8 18.8-10.3 4.9-2.4 7.7-7.6 10.9-11.8 1.5-2 3.1-3.8 4.8-5.6 5.5-6 12.5-11.3 19.7-15.2 22.4-11.9 51.2-13.8 75.9-9.5 7.5 1.4 14.8 3.5 22 5.8 16.3 4.9 33.5 14.2 41.8 29.7 2 0.2 3.9 0.4 5.9 1.1 4.9 1.5 7.8 3.9 10.1 8.5 5-2.3 10.5-3.9 15.8-5.2 7.7-2 27.3-6.7 34-2.6 2 1.2 3.1 3.2 3.6 5.4 2.9 13-12.5 40-19.6 51q-0.1-0.1-0.1-0.2c-0.3-0.6-0.3-0.8-0.2-1.5-1.4 1.2-2.2 3.1-3 4.7 0 0.5 0.1 0.7 0.4 1.2-2.9 4.4-5.9 9-9.2 13.2 1.3 4.5 2.9 13.5 2.8 18.1-0.6 8.7-1.1 19.1-0.3 27.7 0 1.7-0.2 3.3-0.5 4.9 8-0.4 30.1-2.1 36 3.4 0.5 0.5 0.9 1.2 0.9 1.9 0 0.8-0.3 1.6-0.8 2.2-2.3 2.3-9.1 1.6-12.2 1.5-4.7-0.3-9.4-1.3-14.1-1.5-3.3-0.2-6.5 0.4-9.8 0.5-0.4 1.6-0.7 3.2-1.2 4.7 7.7 0.1 29-0.4 34.5 5.2 0.3 0.3 0.6 0.6 0.6 1-0.2 0.7-0.3 1-1 1.5-1.5 0.8-5 0.6-6.7 0.6-9.6 0.5-19.1 0.6-28.7-0.6-0.1 2.3-0.5 4.5-0.7 6.7l-0.2-0.3q-0.2-0.9-0.5-1.8l-0.1 0.2v-0.6c-0.3 2.2-0.5 4.3-0.9 6.5-0.8 4.4-1.8 8.2-1.5 12.7-0.8 3.3-1.8 6.6-2.9 9.8-0.3-0.5-0.7-1.1-0.8-1.7-0.1 1.6-1.6 2.7-1.3 4.7l0.3 0.3h0.2l0.3 0.3c-1.9 5.7-4.3 11.4-6.4 17-1.8 4.7-3.4 9.8-5.6 14.3-1.1 2.1-2.4 4.2-4 5.9-8.8 9.6-36 14.8-49.1 16.7-3.9 0.6-7.8 0.8-11.7 1.3-5.3 0.7-10.5 1.6-15.8 2.2-5.1 0.6-10.2 0.8-15.3 1-7.7 0.2-15.5-0.3-23.3-0.4-23.6-0.3-29.3 1.5-51.3-10-5.4-2.8-11.2-5.9-15.7-10.1-13-12.4-23.1-43.6-26.1-61.1-1-6.1-1.3-12.1-1.5-18.3-10.7 1.9-20.1 7.1-30.7 9.1 0.6-2.4 1.3-4.3 2.8-6.2 5.4-6.6 19.8-10.1 28-11v-4.6c-4.7 0-9.4-1-14.1-0.8-6.6 0.4-13 2-19.6 1.9-0.6-0.4-0.6-0.4-0.7-1.1 0.3-1.2 1.1-2.1 2-2.9 7.3-6.7 23.1-5.3 32.4-5 0.3-3.8 0-7.7 0.5-11.5-3.5-1.4-6.2-4.3-8.7-7.1-13.6-15.1-38.3-59.2-37.2-79q0.1-0.1 0.1-0.2 0.1-0.2 0.2-0.3c1.1-1.6 2.4-2.5 4.1-3.3 8.2-3.6 24-1.2 32.6 0.2 3.3 0.5 6.9 0.9 10 2.1zm224.6 155.9q0-0.2 0-0.4 0 0.2 0 0.4z"/><path  d="m271 221.7l-0.3-0.3h-0.2l-0.3-0.3c-0.3-2.2 1.4-3.2 1.3-5.1-0.1 0.7 0.4 1.5 0.8 2.1z"/><path  d="m288.8 100.6c-0.3-0.5-0.4-0.7-0.4-1.2 0.8-1.6 1.6-3.5 3-4.7-0.1 0.7-0.1 0.9 0.2 1.5q0 0.1 0.1 0.2z"/><path  d="m275.2 208.3c-0.3-4.5 0.7-8.3 1.5-12.7 0.4-2.2 0.6-4.3 0.9-6.5v0.6l0.1-0.2q0.3 0.9 0.5 1.8l0.2 0.3c-0.7 5.7-1.6 11.3-3.2 16.7z"/><path class="a" d="m273.2 149.5c0.6 0.4 0.9 1.1 1.2 1.8 1 2.1 1.3 4.7 0.4 7-0.6 1.4-1.2 1.7-2.5 2.3-0.5 0-0.9-0.1-1.3-0.4-0.5-0.4-0.7-1-0.8-1.7-0.3-2.8 1.3-6.8 3-9z"/><path class="a" d="m66.5 107.2q0.2 0.1 0.4 0.1c2.6 0.6 5.6 3.5 7 5.8 0.9 1.5 0.9 2.3 0.5 3.9-0.5 0.2-0.9 0.3-1.4 0.3-1.4 0-2.8-0.7-3.7-1.7-2.2-2.3-2.9-5.3-2.8-8.4z"/><path class="a" d="m247.7 240.3h0.5c0.7 0.6 0.9 0.6 1 1.4-0.2 0.7-0.4 1.2-1 1.7-2.9 2.7-7.6 3.1-11.3 3.1-0.7-0.1-0.8-0.1-1.2-0.6 0.1-0.3 0-0.3 0.2-0.6 1.9-2.8 8.6-4.4 11.8-5z"/><path class="a" d="m178.4 264.5c3.9-0.2 6 0.4 9.5 2.1-0.4 0.9-0.8 2-1.5 2.6-1.4 1.1-3.1 0.8-4.6 0.6-3.1-0.3-6.9-0.5-9.7-1.9-0.5-0.3-0.8-0.4-1-1.1q0.1-0.1 0.1-0.3c1-1.4 5.6-1.8 7.2-2z"/><path class="a" d="m281 69.2c0.9 0.5 1.7 1.5 2.4 2.2-0.3 1.3-0.6 2.8-1.2 4-1.8 3.5-4.8 4.7-8.4 5.8-0.4 0.1-0.9 0-1.4 0-0.7-0.4-0.8-0.4-1-1.2 1-4.2 6.2-8.5 9.6-10.8z"/><path class="a" d="m84.9 218.5c1.9 0.4 3.8 1.7 5.3 2.8 3.7 2.9 6.2 6.5 6.7 11.2-3.1-1-6.2-2.3-8.6-4.6-2.8-2.7-3.3-5.7-3.4-9.4z"/><path class="a" d="m96 253.6q0.6 0.1 1.1 0.2c3.6 0.8 12.1 3.2 13.8 6.3 0.4 0.9 0.2 1.3-0.1 2.1-1.9 0.6-3.7 0.7-5.8 0.4-2.9-0.5-6.1-2-7.9-4.5-1-1.5-1.4-2.7-1.1-4.5z"/><path class="a" d="m32.1 109.2c1 0.2 2 0.6 3 1.1 3.2 1.7 8.2 5.7 9.1 9.4 0.3 0.9 0.4 1.8-0.2 2.6-0.6 0.3-1.2 0.6-1.9 0.6-2.2-0.1-4.2-1.8-5.6-3.3-2.7-2.9-4.6-6.3-4.4-10.4z"/><path class="a" d="m65.5 148.6c2.5 0.8 4.7 3.9 6.9 5.4 3.5 2.2 7.7 2.9 10.8 5.8 0.5 1 0.3 2.1 0.3 3.3-3.1 0-6.1-0.5-8.8-2-4.7-2.8-7.9-7.3-9.2-12.5z"/><path class="a" d="m132.4 250.3h4.2c3.4-0.1 9.5-0.5 12.1 2.2 0.6 0.6 0.9 1.5 0.9 2.4-0.1 0.8-0.2 1.5-0.8 2.1-4.2 0.4-11 0.3-14.9-1.5-0.9-0.5-1.8-1.1-2.1-2.1-0.4-1.2 0.1-2.1 0.6-3.1z"/><path class="a" d="m116.2 101.5q2.1-0.3 4.2-0.2c4.2 0.1 10.4 2.3 13.2 5.6 0.6 0.6 1.2 1.6 1.1 2.5-0.1 0.6-0.4 0.7-0.9 1.1-2.1 0.5-3.9-0.8-5.7-1.7-2.1-1.1-4.1-2.5-6.2-3.6-4.9 0.6-9.9 0.6-14.7 0.6 2.5-2.6 5.4-3.8 9-4.3z"/><path class="a" d="m58.3 188c0.8 0.2 1.3 0.5 1.8 1.2 2.5 3 6.3 14.8 5.5 18.5-0.2 0.8-0.5 1-1.2 1.4-0.6-0.2-1.2-0.4-1.8-0.9-3.4-2.9-5.5-9.1-6-13.5-0.2-2.5 0-4.6 1.7-6.7z"/><path class="a" d="m210.3 250.2q0.3-0.1 0.7-0.1c0.8-0.1 1.9 0.4 2.4 1 0.4 0.5 0.6 1.2 0.5 1.8-0.2 1.1-0.9 2-1.8 2.6-4.5 3.2-12.4 2.7-17.5 1.9-1-0.2-2.3-0.5-3.2-1.1-0.6-0.5-1-1-1-1.8 0.6-0.9 1.4-1.2 2.4-1.5 2.5-0.7 5.5-0.8 8.2-1.2 3.1-0.4 6.2-1 9.3-1.6z"/><path class="a" d="m235.4 98.2q2.8-0.3 5.5-0.1c2.9 0.3 4.7 1.3 6.6 3.5-0.2 0.9-0.5 2.1-1 2.9-0.3 0.5-0.7 0.7-1.3 0.7-1.5 0.2-3-0.1-4.5-0.3-3.2-0.4-6.1-0.5-9.3 0.1-2.9 0.7-7.5 2.8-10.3 1.9-0.5-0.4-0.6-0.5-0.7-1.1-0.1-0.9 0.5-1.9 1.1-2.6 3.1-3.5 9.5-4.6 13.9-5z"/><path class="a" d="m297.2 45.6q0.5 0 0.9 0.1 0.4 0.1 0.8 0.4c0.4 0.2 0.6 0.6 0.6 1 0.3 1.3-0.6 2.4-1.3 3.4-3.3 1.6-7.3 2-10.9 2.8-3.7 0.8-7.6 1.9-11.3 3.1-5.8 2-10.4 5.3-15.7 7.3l-0.3 0.1c-0.6 0.1-1.5 0.3-2.1 0.1-0.4-0.1-0.4-0.3-0.6-0.7 0.1-0.9 0.5-1.6 1-2.3 1.6-2.2 4.2-4.2 6.5-5.4 6.9-3.8 15.2-5.5 22.6-7.5 3.3-0.8 6.5-1.9 9.8-2.4z"/><path class="b" d="m193 14.8c10.7 2.8 21.6 8.8 30 16 1.2 1 3.7 3.2 3.8 4.8-10.8-1.4-20.4-1.8-31.3-1.3-0.5-6.6-2.1-12.9-2.5-19.5z"/><path class="a" d="m14.3 68.1c1.1-0.1 2.3-0.1 3.4 0 6.3 0.4 12.5 1.8 18.5 3.5 11.1 3 21.8 7.5 32.5 11.6 4.2 1.6 8.8 2.7 12.8 4.7 1.3 0.7 2.2 1.6 3.2 2.7-3.1 1-5.6 1.1-8.8 0.8-11.3-3.2-22.4-7.4-33.5-11.2-5.7-1.9-11.3-3.9-17.1-5.2-3.4-0.8-6.9-1.4-10.4-1.3-2.5 0.1-5.7 1.6-8.1 0.9-0.4-0.5-0.9-1-1-1.6 0-0.6 0.1-1.1 0.5-1.6 1.6-2.1 5.5-2.9 8-3.3z"/><path class="b" d="m83.3 49.5c0.3 0 0.4 0.1 0.6 0.2 0.3 3.2 0.1 6.6 0.1 9.8q0.1 6.7 0.3 13.4c-7.6-0.9-14.5-4.5-21.2-7.8-3-1.3-5.9-2.1-9.1-2.8 0.4-2.1 0.3-4.4 0.5-6.5 9.2-3.3 19-5.8 28.8-6.3z"/><path class="b" d="m135.4 9.8c0.3 0.4 0.3 0.5 0.2 1-0.4 3.3-2 6.8-2.8 10-1.2 4.9-1.6 9.9-2.2 14.9-12.2 0.2-24.5 3.1-36.5 5.1-4.4 0.7-8.8 1.1-13.2 1.6-0.2-0.4-0.2-0.4-0.1-0.9 5.8-9.1 31.1-22.9 41.2-27.1 4.3-1.9 8.9-3.2 13.4-4.6z"/><path class="a" d="m241.5 116.6c2.3-0.4 5.1-0.2 7.4 0.4 5.9 1.5 10.9 5.8 14 10.9 1.3 2.3 2.4 5.1 1.6 7.7-0.7 2.5-2.6 3.9-4.8 5.1-6.5 0.3-12.9-0.9-19.5-0.4-4.1 0.4-8.2 1.4-12.3 2-2.6 0.3-6 0.7-8.2-1.1-1.5-1.3-2.2-3.3-2.4-5.2-0.3-3.4 0.8-6.6 3-9.2 4.9-6 13.7-9.4 21.2-10.2z"/><path  d="m250 119.3c0.9 0.3 1.6 1.2 2.3 1.9 0.3 1.5 0.6 3.1 0.6 4.7 0.2 3.2 0 8.4-2.4 10.8-0.8 0.8-1.3 0.8-2.4 0.8-1.1-0.6-1.8-1.3-2.4-2.4-1.6-2.9-1.5-6.6-0.7-9.7 0.9-2.9 2.3-4.7 5-6.1z"/><path class="b" d="m144.5 7.5c4.8 1 10.3 0.7 15.2 1.3 8.7 1 17.3 2.8 26 4.1 0.4 7 2.2 14.1 3.8 21-3.3 0.6-6.9 0.4-10.3 0.6-4.5-0.6-9.2-1.3-13.8-1-4.4 0.2-8.8 1.1-13.2 1.5-5.3 0.3-10.6 0.3-15.8 0.2 0.1-6.2 3.8-15.7 6-21.7 0.7-2 1.6-4 2.1-6z"/><path class="b" d="m219.1 42.4c2.5 0.1 5 0.7 7.5 1.2 7.1 1.3 15.8 2.5 21.8 6.8 2.2 1.5 3.7 3.4 4.2 6.2 0.5 3.5 0.1 27.3-1 28.9h-0.9c-11.5-2.1-22.5-4.5-34.2-5.1 0.1-7.2 1.1-14.4 1.8-21.6 0.4-5.5 0.6-11 0.8-16.4z"/><path class="a" d="m110.4 114.7c7.5-0.4 16 1.1 22.3 5.5 4.7 3.4 9.2 9.3 10.1 15.2 0.6 4-0.7 6.9-2.9 10-6.7 0.8-12.8-0.7-19.3-1.8-9.9-0.7-19.5 0.7-29.3 0.7-2.1-2-4.2-3.6-4.7-6.7-0.6-3.5 0.8-6.8 2.8-9.6 5-6.8 12.6-12 21-13.3z"/><path  d="m124.2 120.1q0.2 0 0.4 0c0.9-0.1 1.4-0.1 2 0.6 1.9 1.8 2 5.7 2 8.1 0 3.8-0.3 9.2-3.2 12-0.9 0.8-1.6 0.8-2.7 0.8-1.5-0.8-2.5-1.6-3.2-3.1-1.8-3.7-1.4-9.2-0.1-12.9 0.9-2.6 2.2-4.3 4.8-5.5z"/><path class="b" d="m153.7 41.3q29.4 0.1 58.8 0.7c-0.8 6.6-1.6 13.5-1.9 20.2-0.3 5.8-0.1 11.6-0.1 17.3-5.3 0.2-10.8-1.9-16.2-2-5.3-0.2-10.5 1-15.7 1.2-7.6 0.3-15-0.6-22.5-1.3-2.5-11.8-2.5-24.1-2.4-36.1z"/><path class="b" d="m140.4 41.2c2.2-0.2 4.4-0.2 6.6-0.2-0.1 3.8 0.2 7.7 0.4 11.5 0.3 8.3 0.6 16.8 1.4 25.1-10.2 0.6-20.5 2.4-30.6 3.4-4.1 0.4-8.2 0.3-12.2 0.5-2 0.1-5.8 0.9-7.5 0-2.6-2.6-5.1-5.5-8.4-7.3-0.4-8.7 0.2-17.5 0.1-26.2 2.6-0.6 5.3-0.8 7.9-1.3 4.7-0.9 9.4-2.2 14.1-3 9.5-1.7 18.6-2.2 28.2-2.5z"/><path class="a" d="m176 84.4c2.1-0.4 4.7-0.1 6.8-0.2 4 0 8 0.3 11 3.3 4.6 4.6 6.4 14.1 6.6 20.4 0.2 3.5-0.1 7-0.1 10.5 0.1 3.1 0.3 6.4 1.2 9.4 1.3 4.2 3.7 8.4 6 12 5.8 9.2 12.6 17.9 22.9 22.3 8 3.5 18.5 3.1 25.1 9.5 3.7 3.7 5 9.2 5 14.3 0 13.8-5.4 28.1-15.2 37.9-3.6 3.6-7.8 6.1-12.6 7.8-5.9 2.2-12.2 2.9-18.4 3.8-8.4 1.2-16.8 2.5-25.3 3-5.4 0.3-10.9 0.1-16.4 0.1-18.1 0.1-45.2-2.5-61-11.8-9.3-5.4-18.4-17.8-21.1-28.3-1.3-4.9-1-9.4 1.7-13.9 6.1-10.1 20-13.5 30.7-16.5 4.8-1.4 9.6-2.9 14.5-4 3.7-0.8 7.5-1.3 11.2-2.2 2.5-0.6 5.1-1.4 7.1-3 5.7-4.5 9.8-17.1 9.9-24.1 0.2-5.1-0.9-10.3-1.5-15.3-0.9-7.6-0.6-14.5 0.7-22 0.7-3.7 1.3-7 3.3-10.3 2.6-1.5 4.9-2.4 7.9-2.7z"/><path  d="m206.8 168.2c1.6 0 2.9 0.1 4.3 0.9 0.7 0.4 1.2 0.9 1.3 1.7 0.3 1.1-0.3 2-0.9 2.9-0.8 0.3-1.8 0.4-2.7 0.3-0.7-0.1-1.4-0.3-1.8-0.9-1-1.5-0.5-3.2-0.2-4.9z"/><path  d="m216.7 173q0.7 0 1.3 0.1c1.4 0.3 2.5 1 3.3 2.2 0.4 0.6 0.5 1.3 0.4 2.1-0.3 1.2-1 1.8-2 2.4-1.4-0.1-2.8-0.1-4-1.1-0.6-0.4-0.9-1-1-1.8-0.1-1.6 1-2.8 2-3.9z"/><path  d="m217.2 164c1.8 0 3.6 0.1 5.1 1.3 0.5 0.5 0.9 1.1 1 1.8 0.1 1.3-0.7 2.2-1.4 3.1q-0.1 0-0.2 0.1c-1 0.4-2.5 0.6-3.5 0.1-0.8-0.3-1.4-1.1-1.6-1.9-0.5-1.3-0.1-3.3 0.6-4.5z"/><path  d="m163 166.9c1.3 0.1 2.4 0.4 3.6 0.7q0.6 0.5 1.1 1.1c0.8 0.8 1.2 1.8 1.1 3-0.1 1.3-1.2 2.5-2.2 3.3-1.7 0.1-3.4 0.2-4.8-1-0.7-0.5-1.1-1.3-1.2-2.2 0-1.9 1.3-3.6 2.4-4.9z"/><path  d="m161.6 176.5c1 0 2.1 0.2 3.2 0.3 0.7 0.6 1.4 1.2 1.9 2 0.3 0.7 0.4 1.5 0.1 2.2-0.4 1.5-2 2.3-3.3 3q-0.1 0-0.3 0c-1.5 0.1-3.7 0.1-4.8-1-0.4-0.4-0.6-1-0.6-1.6 0.2-2.2 2.2-3.6 3.8-4.9z"/><path  d="m151.8 167.2c1.8 0.2 3.5 0.6 4.9 2.1 0.7 0.7 1.2 1.7 1 2.8-0.1 1.6-1.3 2.7-2.5 3.6-1.8 0.1-3.3 0.1-4.8-1.1-0.8-0.7-1.3-1.6-1.3-2.6 0-2.1 1.3-3.5 2.7-4.8z"/><path  d="m167.3 222.1c1 0.1 2.1 0.2 3.1 0.5 2.3 0.9 4.5 2.7 5.5 4.9 0.8 1.7 0.7 3 0.1 4.8-1.7 0.6-2.9 0.5-4.6 0.1q-0.7-0.6-1.4-1.3c-2.3-2.6-2.9-5.6-2.7-9z"/><path  d="m185.2 221.2c0.5 0 1-0.1 1.5 0 0.7 0.1 1.1 0.5 1.5 1 1.9 2.4 1.9 7 1.5 9.9-0.1 1-0.4 1.8-1.2 2.4-0.8 0-1.8 0.1-2.5-0.1-1-0.4-1.7-1.3-2-2.2-1.2-3.1 0-8.1 1.2-11z"/><path  d="m203.9 217.3q0.6 0 1.2 0c1.2 0.1 2.5 0.2 3.3 1.2 0.6 0.9 0.7 1.9 0.5 2.9-0.9 3.9-4.7 8.1-8 10.2-0.8 0.1-1.7 0.3-2.6 0.3-0.6 0-1.1-0.3-1.5-0.7-0.6-0.7-0.7-1.5-0.6-2.4 0.5-4.5 4.2-8.9 7.7-11.5z"/><path  d="m187.1 94.9c1.6 1.8 0.1 6.8 0.5 9.3 1.5 7.9 7.9 12.9 8.2 21.5-1.2 0.7-2.2 1.3-3.5 1.6-1.6-0.5-2.8-1.1-3.9-2.2-4.5-4.5-5.4-11.7-5.3-17.8 0-4.3 0.8-9.2 4-12.4z"/><path  d="m174.6 95.4c1.1 0.1 2.2 0.4 3.2 0.7 2.7 6.2 3.4 12.4 1.8 19.1-0.9 3.7-2.8 6.4-6.1 8.5q-0.6 0-1.1 0c-1.2 0-2.7-0.1-3.5-1.1-3.3-3.7 4.4-13.2 5.4-17 0.8-3 0.2-7 0.3-10.2z"/><path  d="m194.4 142.6c0.2 0 0.3 0 0.5 0 3.2 0.1 6.1 1.2 8.3 3.5 4.3 4.4 5.4 9.7 5.3 15.6-0.7 1.3-1.6 2.7-2.7 3.6-2.2 2-5 1.5-7.7 1.3-2 1.5-3.9 2.8-6.1 3.9 0 3.6 0.3 7.5 1.7 10.9 4.6 11.6 22.4 2.7 30.7 0.8 6.2-1.4 13.6-2 19.5 0.6 1.7 0.8 4 2 4.7 3.9-0.1 0.7-0.1 1-0.5 1.5-1.8 1.7-5.2 1.8-7.4 1.9-2 3.6-3 7.7-4.6 11.5-1.5 3.3-3.5 5.9-5.7 8.8-6.4-2.4-7.6-4.8-10.1-11-0.6-1.5-1.3-3-2.2-4.3-1-1.4-2.2-2.1-3.9-2.4-0.8 0.6-1.9 5.3-2.4 6.6-1.4 3.2-3.3 6.7-5.6 9.3-1.4 1.7-3.4 3.3-5.7 3.4-6.4 0.2-4.8-14.2-6.9-18.8-0.9-2.1-3.3-3.9-5-5.5-3.3 3.1-6.7 4.9-10.8 6.9-0.2 3.6-0.7 6.9-1.7 10.4-1.5 3.9-3.2 7.5-6.3 10.4l-2.9-0.6c-3.7-3.7-5.3-8.6-5.9-13.7-0.2-1.8-0.2-3.8-0.9-5.5-1.5-0.1-3.3-0.6-4.7-0.5-0.1 0.1-0.5 0.1-0.6 0.2-1.1 0.7-4.4 14.4-6.7 17.1-0.7 0.8-1.6 1.4-2.7 1.5-1.9 0.1-4-1.5-5.4-2.8-4.3-4.1-6.3-10.9-6.4-16.7-5.2 2-11.7 5.7-17.3 6-1 0-1.6 0-2.4-0.7-0.1-0.3-0.2-0.6-0.1-0.9 0.3-2.2 2.9-4.8 4.5-6.2 2.6-2.2 5.5-3.6 8.8-4.7q3.3-1.1 6.7-1.6 3.5-0.6 7-0.6c10.7 0.1 28.8 5.5 38-1.4 4.9-3.7 5.7-8.5 6.5-14.1-4.2-1.1-6.8-2.5-9.8-5.7-0.8 0.7-1.4 1.1-2.6 1.3-1.3 0.1-2.4 0-3.5-0.9-1.9-1.6-2.7-4.5-2.9-6.9-0.3-3.1 0.3-6.2 2.4-8.6 4.9-5.7 18.4-6.3 25.5-6.8z"/><path class="a" d="m164.6 195.7q4.1 0.1 8.2 0.1c-0.9 3.7-2 7.4-3.2 11.1q-0.3 1.5-0.6 3c-0.7-2.2-1.8-4.2-2.5-6.4-0.9-2.5-1.4-5.2-1.9-7.8z"/><path class="a" d="m199.5 194.5q4.5 0 8.9 0c-1.2 2.7-2.4 5.3-4 7.8-1.1 1.7-2.2 3.2-3.6 4.7-1.5-4.2-1.3-8.1-1.3-12.5z"/><path class="a" d="m137.2 194.2c4.2 0 8.4 0.3 12.5 0.3-0.5 3.8-2 7.5-3.3 11.1-0.6 1.3-1 2.7-1.5 4.1-1.2-2.6-2.9-5-4.2-7.5-1.4-2.6-2.3-5.3-3.5-8z"/><path class="a" d="m232.8 188.8c0.6-0.1 1-0.1 1.6 0q0 0.1 0.1 0.2c0.7 2.6-4.2 13.7-5.7 16.2l-2-3.4c-2.1-3.7-3.9-7.5-5.8-11.3z"/><path class="b" d="m190.3 147.5c3.4 0 6.8 0 9.5 2.3 2.1 1.8 3.4 5.2 3.5 7.8 0.1 1.7-0.2 3.3-1.4 4.5-1.7 0.4-4-2-5.7-2.7-2.3 0.4-3.5 4.5-5.6 5.9-1.4 0.9-3 0.9-4.6 0.5-3.2-1.7-5.3-4.9-8.5-6.4-1.6 0.6-3.3 0.9-4.9 1.3-1-0.9-1.8-1.9-1.9-3.3-0.1-1.4 0.4-2.4 1.3-3.4 4.4-5.1 12.1-6.1 18.3-6.5z"/></svg>