<?xml version="1.0" encoding="utf-8" ?>
<svg xmlns="http://www.w3.org/2000/svg" xmlns:xlink="http://www.w3.org/1999/xlink" width="512" height="512">
	<path d="M445.629 427.254C446.126 438.334 445.298 449.838 437.429 458.423C425.148 471.823 399.206 473.501 382.01 474.155C378.609 474.285 375.124 474.34 371.723 474.199C370.971 479.802 368.562 484.831 363.979 488.312C358.689 492.332 351.489 493.238 345.05 492.344Q344.559 492.281 344.072 492.193Q343.586 492.105 343.104 491.994Q342.622 491.882 342.146 491.747Q341.67 491.612 341.201 491.453Q340.733 491.294 340.273 491.113Q339.812 490.931 339.362 490.727Q338.911 490.522 338.471 490.296Q338.031 490.07 337.603 489.822Q337.175 489.574 336.76 489.306Q336.344 489.037 335.943 488.748Q335.541 488.459 335.154 488.151Q334.767 487.843 334.396 487.516Q334.025 487.188 333.671 486.843Q333.316 486.498 332.979 486.136Q332.643 485.774 332.324 485.395Q332.005 485.017 331.706 484.623C329.323 481.458 328.233 477.972 327.539 474.122C324.114 474.401 320.592 474.213 317.152 474.193L300.148 474.149L241.975 474.164L192.45 474.144L178.584 474.19C175.546 474.213 172.406 474.405 169.384 474.082C168.457 480.572 166.897 486.338 161.367 490.426C155.699 494.617 148.048 495.364 141.244 494.253Q140.77 494.179 140.3 494.082Q139.83 493.984 139.365 493.863Q138.9 493.742 138.443 493.598Q137.985 493.454 137.535 493.287Q137.085 493.12 136.644 492.931Q136.202 492.741 135.771 492.53Q135.34 492.318 134.921 492.086Q134.501 491.853 134.093 491.599Q133.686 491.346 133.291 491.072Q132.897 490.798 132.517 490.505Q132.137 490.212 131.772 489.9Q131.407 489.588 131.058 489.258Q130.709 488.928 130.378 488.581Q130.046 488.234 129.732 487.871Q129.418 487.508 129.123 487.129Q128.828 486.751 128.552 486.358C125.904 482.613 125.037 478.141 124.789 473.639C107.612 472.744 84.9652 470.983 72.6156 457.403C65.9962 450.124 65.1636 440.458 65.2506 431.062C66.7781 433.157 65.5581 435.404 66.4765 437.695C66.7968 437.787 67.1532 437.91 67.4894 437.939C68.0819 437.99 68.4669 437.972 68.9078 437.555C68.2891 436.428 68.0115 434.982 67.6445 433.745L67.9408 433.281L67.8585 433.068L67.4642 433.065L67.8048 432.937Q68.6128 435.868 69.6027 438.742C72.4488 446.78 77.9585 451.936 85.6326 455.472C95.8614 460.186 107.56 461.661 118.694 462.493C133.885 463.628 149.071 463.027 164.286 463.037L242.356 463.031L334.443 463.045C352.1 463.046 369.968 463.615 387.596 462.677C398.277 462.109 409.28 461.354 419.414 457.653C430.007 453.783 439.032 448.151 441.866 436.581C442.504 433.977 442.346 430.109 443.399 427.85L443.391 428.061L443.485 428.138C443.33 429.177 443.183 430.095 443.728 431.021L444.153 431.076C445.799 429.953 444.715 428.912 445.442 427.517C445.492 427.422 445.567 427.342 445.629 427.254Z"/>
	<path fill="#312E2F" d="M366.373 473.255C367.283 473.228 368.195 473.138 369.073 473.427C369.354 474.316 369.035 475.289 368.839 476.175C367.814 480.816 366.209 483.8 362.15 486.387C361.256 486.921 360.328 487.394 359.407 487.878C364.208 482.923 364.631 479.655 366.373 473.255Z"/>
	<path fill="#312E2F" d="M163.365 473.204L166.826 473.283C166.667 475.115 166.498 476.943 166.116 478.745C165.12 483.458 162.58 486.664 158.595 489.24Q156.811 490.174 154.972 490.994C155.676 490.45 156.389 489.906 157.057 489.316C161.657 485.255 162.93 479.065 163.365 473.204Z"/>
	<path fill="#312E2F" d="M351.543 473.366C352.39 473.205 353.608 473.189 354.46 473.321C355.18 473.432 355.415 473.719 355.871 474.253C356.009 474.757 356.074 475.082 355.984 475.608C355.701 477.275 353.968 478.878 352.651 479.779C349.644 481.834 346.757 481.995 343.305 481.378Q342.749 480.893 342.202 480.398C340.009 478.452 339.03 476.066 337.849 473.463C342.347 473.525 347.067 473.826 351.543 473.366Z"/>
	<path fill="#312E2F" d="M139.738 473.382C144.176 472.97 148.837 473.526 153.315 473.487C153.204 474.862 153.179 476.363 152.811 477.696C152.107 480.241 150.486 481.657 148.239 482.88C146.776 483.33 145.396 483.669 143.846 483.613C141.609 483.532 139.586 482.713 138.058 481.053C136.006 478.823 135.616 476.414 135.776 473.526C137.104 473.533 138.42 473.57 139.738 473.382Z"/>
	<path fill="#A09797" d="M357.995 473.184C360.213 473.388 362.322 473.511 364.553 473.496C363.99 475.733 363.51 477.934 362.702 480.102C361.165 483.511 358.172 486.421 354.853 488.112C350.801 490.177 345.908 490.47 341.599 489.055C337.385 487.672 334.232 484.943 332.256 480.968C331.433 479.314 329.752 475.393 330.357 473.61Q331.864 473.464 333.376 473.37C334.254 473.153 335.382 473.269 336.295 473.257C336.745 474.816 337.185 476.403 337.913 477.861C339.208 480.453 341.362 482.399 344.166 483.22C346.828 484 349.861 483.698 352.27 482.304C355.779 480.271 357.062 476.896 357.995 473.184Z"/>
	<path fill="#A09797" d="M127.249 473.294L133.705 473.259C133.703 476.135 134.174 479.132 135.918 481.503C137.586 483.768 140.279 485.37 143.073 485.712C145.959 486.066 148.82 485.076 151.034 483.229C154.291 480.512 154.84 477.266 155.171 473.296C156.66 473.27 158.294 473.036 159.766 473.239C160.271 473.308 160.841 473.52 161.137 473.946C161.96 475.133 161.298 477.564 161.113 478.96C160.224 481.466 159.06 483.812 157.369 485.877C154.522 489.352 150.65 491.517 146.161 491.916C141.498 492.33 136.878 490.982 133.303 487.93C128.793 484.079 127.673 478.94 127.249 473.294Z"/>
	<path fill="#A09797" d="M442.901 439.941C443.015 442.527 441.275 447.404 440.185 449.865C436.998 457.056 429.79 462.235 422.63 464.981C412.491 468.87 401.408 470.35 390.623 471.108C386.082 471.428 381.547 471.418 377.001 471.513Q358.471 471.932 339.938 471.752L258.665 471.751L173.843 471.749C157.619 471.75 141.048 472.349 124.873 471.347C112.329 470.57 98.8607 469.764 87.2554 464.501C78.0172 460.311 72.978 456.014 69.4029 446.438L67.5054 439.756C68.7036 441.33 69.4153 443.186 70.4209 444.879C72.7267 448.763 76.8379 452.429 80.6852 454.739C91.3251 461.129 104.618 463.036 116.783 464.149C133.81 465.706 151.262 464.997 168.355 464.998L251.026 464.998L337.313 464.995L364.956 465C380.885 465.008 397.658 465.053 413.213 461.232C423.219 458.775 432.906 454.997 439.176 446.37C440.647 444.345 441.608 442.067 442.901 439.941Z"/>
	<path fill="#312E2F" d="M65.2506 431.062Q65.2342 429.456 65.2624 427.851C65.36 422.605 66.8157 418.576 70.6586 414.944C76.1844 409.722 84.181 407.808 91.5884 407.501C104.457 406.967 117.359 410.119 129.953 412.375C134.644 413.215 139.294 414.079 144.061 414.36C151.088 414.773 158.19 415.198 165.229 415.251C171.562 415.299 177.914 415.016 184.253 414.995L225.244 414.991C233.248 414.997 241.265 414.864 249.267 415.043L249.437 415.398C248.275 415.328 245.406 414.894 244.474 415.378C244.567 415.426 244.662 415.472 244.753 415.523C245.177 415.758 245.42 416.101 245.74 416.454C246.639 417.448 248.308 417.914 249.65 417.88C249.759 417.878 249.865 417.838 249.973 417.817C249.447 417.666 249.259 417.684 248.866 417.282L248.677 417.533L248.74 416.986C249.165 416.811 249.27 416.696 249.736 416.772C250.473 417.391 251.494 418.064 251.975 418.898C251.701 419.43 251.476 419.533 250.92 419.705C248.145 420.562 244.575 420.253 241.662 420.622C234.388 421.543 220.989 424.825 215.133 428.973C216.056 432.258 215.692 435.695 216.371 439.021C216.908 441.649 218.353 443.901 219.045 446.452C218.655 447.331 218.225 448.094 218.309 449.078C218.691 449.572 218.9 449.736 219.545 449.787C220.377 449.853 221.296 449.737 222.132 449.69C226.097 454.108 229.118 457.481 235.482 457.812C242.086 458.155 250.24 452.299 254.923 447.991C258.605 444.604 262.548 439.732 262.764 434.502C262.836 432.74 262.432 430.995 262.414 429.24C262.377 425.704 265.05 421.269 267.102 418.43C267.163 418.39 267.223 418.349 267.285 418.311C268.528 417.553 271.162 416.613 272.585 416.749C272.909 417.032 273.147 417.299 273.398 417.648C274.618 417.49 275.924 416.142 276.806 415.337C275.125 414.905 272.066 416.174 270.906 414.946C275.659 414.902 280.417 414.949 285.171 414.969C287.877 414.981 291.08 414.705 293.727 415.243C293.64 415.263 293.552 415.284 293.465 415.304C291.97 415.633 290.41 415.205 289.005 415.553L289.053 416.2L289.186 415.925L288.988 416.1C289.427 416.623 289.814 417.172 290.431 417.495C291.028 416.893 291.059 416.953 291.903 416.957C293.929 416.967 295.986 417.603 298.016 417.725C300.821 417.894 303.711 417.743 306.523 417.722C309.13 417.703 311.9 417.836 314.488 417.542C315.512 417.425 316.706 416.899 317.711 416.943C318.38 416.972 319.256 417.458 319.868 417.739C321.213 417.486 321.89 415.873 322.883 415.775L323.016 415.385L323.131 415.657C322.055 415.64 317.464 415.512 316.891 415.3C322.625 414.885 328.38 415 334.125 415.006C344.586 415.017 354.987 415.136 365.434 414.461Q372.618 414.023 379.697 412.726C384.251 411.892 388.736 410.711 393.283 409.844C407.555 407.123 428.194 404.695 440.028 414.921C443.81 418.19 445.277 422.371 445.629 427.254C445.567 427.342 445.492 427.422 445.442 427.517C444.715 428.912 445.799 429.953 444.153 431.076L443.728 431.021C443.183 430.095 443.33 429.177 443.485 428.138L443.391 428.061L443.399 427.85C442.346 430.109 442.504 433.977 441.866 436.581C439.032 448.151 430.007 453.783 419.414 457.653C409.28 461.354 398.277 462.109 387.596 462.677C369.968 463.615 352.1 463.046 334.443 463.045L242.356 463.031L164.286 463.037C149.071 463.027 133.885 463.628 118.694 462.493C107.56 461.661 95.8614 460.186 85.6326 455.472C77.9585 451.936 72.4488 446.78 69.6027 438.742Q68.6128 435.868 67.8048 432.937L67.4642 433.065L67.8585 433.068L67.9408 433.281L67.6445 433.745C68.0115 434.982 68.2891 436.428 68.9078 437.555C68.4669 437.972 68.0819 437.99 67.4894 437.939C67.1532 437.91 66.7968 437.787 66.4765 437.695C65.5581 435.404 66.7781 433.157 65.2506 431.062Z"/>
	<path d="M248.354 68.3149C248.271 68.2759 248.186 68.2382 248.103 68.1978C242.229 65.3522 237.534 59.6413 235.48 53.5088C234.906 51.7946 233.855 48.3524 234.746 46.7009C234.932 46.3562 235.429 46.2696 235.791 46.2128C238.35 45.8111 248.94 47.3663 250.101 46.4129C251.2 43.2594 252.17 40.1313 253.761 37.1751C257.354 30.4992 264.059 26.0609 270.692 22.849C283.223 16.7802 297.935 15.4554 311.192 20.0489Q312.16 20.3915 313.111 20.7814Q314.061 21.1713 314.991 21.6074Q315.921 22.0436 316.828 22.525Q317.736 23.0065 318.618 23.532Q319.501 24.0575 320.356 24.6258Q321.212 25.1941 322.039 25.8038Q322.865 26.4136 323.661 27.0633Q324.457 27.713 325.219 28.401Q325.982 29.0891 326.71 29.8139Q327.438 30.5387 328.129 31.2984Q328.82 32.0581 329.473 32.851Q330.126 33.6438 330.74 34.4678Q331.353 35.2919 331.925 36.1451Q332.497 36.9983 333.026 37.8786Q333.555 38.7589 334.041 39.6643Q334.526 40.5696 334.966 41.4977C346.777 66.2882 337.597 93.9306 329.852 118.372L319.694 150.664C317.969 156.089 313.563 167.349 313.584 172.49C313.597 175.604 314.752 178.883 315.781 181.782C317.721 187.251 320.284 192.405 322.911 197.566C328.033 207.63 334.268 218.427 330.16 229.994C329.496 231.863 328.653 233.775 327.568 235.44C333.004 236.135 338.498 236.47 343.444 233.694C345.419 232.586 347.284 231.193 349.379 230.321C350.947 233.054 351.804 235.792 352.696 238.791C354.265 237.57 357.742 234.246 359.792 234.533C360.701 234.659 361.329 235.546 361.734 236.291C362.815 238.282 363.526 240.478 364.509 242.519C366.42 240.553 368.222 238.559 370.552 237.078C374.438 240.346 375.462 243.861 376.248 248.704C377.411 248.195 378.995 247.38 380.285 247.812C381.296 248.151 381.778 248.954 382.152 249.886C382.415 250.542 382.587 251.209 382.732 251.9C384.822 251.245 387.915 249.868 390.075 250.28C391.706 252.19 390.778 258.772 390.577 261.362C389.809 271.235 388.276 282.647 385.289 292.106C380.321 307.833 369.701 322.871 357.239 333.574C341.956 346.7 322.38 355.683 302.141 357.188C301.207 358.979 300.241 360.759 299.367 362.579C301.323 366.547 302.433 371.313 303.776 375.543Q308.157 388.925 312.33 402.374C313.286 405.544 314.265 408.77 315.123 411.96C315.345 412.788 315.326 413.697 315.624 414.501C315.793 414.958 315.836 415.154 316.356 415.307C316.461 415.338 316.773 415.308 316.891 415.3C317.464 415.512 322.055 415.64 323.131 415.657L323.016 415.385L322.883 415.775C321.89 415.873 321.213 417.486 319.868 417.739C319.256 417.458 318.38 416.972 317.711 416.943C316.706 416.899 315.512 417.425 314.488 417.542C311.9 417.836 309.13 417.703 306.523 417.722C303.711 417.743 300.821 417.894 298.016 417.725C295.986 417.603 293.929 416.967 291.903 416.957C291.059 416.953 291.028 416.893 290.431 417.495C289.814 417.172 289.427 416.623 288.988 416.1L289.186 415.925L289.053 416.2L289.005 415.553C290.41 415.205 291.97 415.633 293.465 415.304C293.552 415.284 293.64 415.263 293.727 415.243C291.08 414.705 287.877 414.981 285.171 414.969C280.417 414.949 275.659 414.902 270.906 414.946C272.066 416.174 275.125 414.905 276.806 415.337C275.924 416.142 274.618 417.49 273.398 417.648C273.147 417.299 272.909 417.032 272.585 416.749C271.162 416.613 268.528 417.553 267.285 418.311C267.223 418.349 267.163 418.39 267.102 418.43C265.05 421.269 262.377 425.704 262.414 429.24C262.432 430.995 262.836 432.74 262.764 434.502C262.548 439.732 258.605 444.604 254.923 447.991C250.24 452.299 242.086 458.155 235.482 457.812C229.118 457.481 226.097 454.108 222.132 449.69C221.296 449.737 220.377 449.853 219.545 449.787C218.9 449.736 218.691 449.572 218.309 449.078C218.225 448.094 218.655 447.331 219.045 446.452C218.353 443.901 216.908 441.649 216.371 439.021C215.692 435.695 216.056 432.258 215.133 428.973C220.989 424.825 234.388 421.543 241.662 420.622C244.575 420.253 248.145 420.562 250.92 419.705C251.476 419.533 251.701 419.43 251.975 418.898C251.494 418.064 250.473 417.391 249.736 416.772C249.27 416.696 249.165 416.811 248.74 416.986L248.677 417.533L248.866 417.282C249.259 417.684 249.447 417.666 249.973 417.817C249.865 417.838 249.759 417.878 249.65 417.88C248.308 417.914 246.639 417.448 245.74 416.454C245.42 416.101 245.177 415.758 244.753 415.523C244.662 415.472 244.567 415.426 244.474 415.378C245.406 414.894 248.275 415.328 249.437 415.398L249.267 415.043L252.499 414.982C255.103 406.37 258.784 397.857 261.936 389.419C264.487 382.591 266.575 375.514 269.632 368.893C266.382 365.046 261.593 357.076 259.668 352.397C236.581 343.717 217.646 330.421 207.243 307.348C196.472 283.459 200.881 255.76 209.937 232.131C212.201 226.224 214.817 220.342 218.113 214.937C210.26 212.228 203.96 207.449 200.295 199.891C199.809 198.889 199.407 197.849 199.008 196.81C194.696 195.923 192.052 194.102 189.622 190.456C187.365 187.071 185.844 183.183 183.074 180.149C180.529 177.362 177.695 176.828 175.805 173.148C172.405 172.273 169.126 170.978 167.242 167.786C165.733 165.23 165.807 162.345 166.593 159.575C166.848 158.674 167.246 157.909 167.766 157.137C164.773 152.72 156.247 141.651 157.435 136.436C157.653 135.478 158.205 134.725 159.062 134.243C161.053 133.122 163.55 133.625 165.606 134.287C168.145 135.104 170.894 136.219 173.155 137.648C173.272 133.866 172.838 127.054 175.816 124.155C176.473 123.516 177.24 123.267 178.159 123.315C182.454 123.539 189.334 133.57 191.997 136.829Q194.291 139.642 196.846 142.22C203.706 149.078 211.836 154.288 221.606 155.579C224.865 156.009 228.318 156.301 231.567 155.674C233.814 153.749 236.032 151.798 238.523 150.188C247.26 144.54 263.277 137.389 268.757 128.444C272.404 122.491 273.862 113.399 274.388 106.453C274.77 101.414 274.391 96.3768 274.224 91.341C263.623 96.9346 243.975 99.3322 232.583 95.8552C229.106 94.7939 225.087 92.7327 223.416 89.3382C222.759 88.0017 222.596 86.5435 223.14 85.1381C224.85 80.7256 236.653 76.0438 240.933 73.4601C243.529 71.8926 245.859 70.015 248.354 68.3149ZM270.906 414.946C275.659 414.902 280.417 414.949 285.171 414.969C287.877 414.981 291.08 414.705 293.727 415.243L294.14 415.233L294.417 414.931C293.932 411.157 288.489 399.758 286.361 396.036C285.412 394.375 284.331 392.855 283.16 391.344C281.154 395.159 270.927 412.278 270.543 414.754L270.906 414.946Z"/>
	<path fill="#E1CAA3" d="M162.287 143.743C163.544 143.791 163.918 143.851 164.803 144.801C166.843 146.987 172 151.995 173.364 154.098L173.49 155.386C172.83 156.011 171.141 155.803 170.224 155.819C168.086 154.248 163.792 146.366 162.287 143.743Z"/>
	<path fill="#6D6D6D" d="M255.464 50.0273C257.485 49.9102 259.531 50.1613 261.546 50.33C264.741 53.8644 265.938 58.7964 268.271 62.8669C263.73 61.4193 258.122 53.8195 255.464 50.0273Z"/>
	<path fill="#6D6D6D" d="M245.394 49.2164C247.154 49.1938 248.964 49.4336 250.73 49.5125C252.369 50.4111 261.453 59.8709 262.2 61.7295C260.205 61.7112 258.206 61.9627 256.204 61.9947C254.161 59.2161 251.685 56.7623 249.408 54.1745C247.998 52.5717 246.757 50.8553 245.394 49.2164Z"/>
	<path fill="#6D6D6D" d="M283.252 52.031C285.259 52.0275 287.346 52.2426 289.365 52.3106C293.006 55.818 296.042 59.9309 299.521 63.6101L297.666 65.4153L295.81 66.915C292.931 62.3084 284.989 55.5816 283.252 52.031Z"/>
	<path fill="#FE881F" d="M262.391 352.568C266.756 353.243 270.982 354.956 275.368 355.595C274.328 358.212 272.991 361.09 272.342 363.823C271.751 365.012 271.358 366.164 270.982 367.432C268.996 364.076 263.033 355.765 262.391 352.568Z"/>
	<path fill="#6D6D6D" d="M273.074 51.2244C275.816 51.1796 277.816 51.3347 280.407 52.2632C282.134 54.1197 283.604 56.2741 285.269 58.2015C287.144 60.3723 291.841 65.0112 293.122 67.1687C293.411 67.6551 293.346 67.7277 293.193 68.2348C292.143 68.4486 290.902 68.929 289.852 68.9445C289.194 68.9542 288.88 68.7839 288.398 68.362C286.299 66.5233 284.582 64.0203 282.791 61.8759C279.671 58.1395 276.589 54.5945 273.074 51.2244Z"/>
	<path fill="#FE881F" d="M247.674 440.001L248.273 440.068C248.246 440.226 248.242 440.391 248.192 440.544C247.858 441.573 239.777 453.374 238.951 454.301C238.289 455.044 237.526 455.653 236.551 455.914C233.662 456.686 229.868 454.563 227.417 453.183C225.784 452.011 224.62 450.629 223.417 449.047C231.655 446.441 239.685 443.281 247.674 440.001Z"/>
	<path fill="#FE881F" d="M217.445 431.236C223.57 431.606 229.746 432.028 235.875 432.256C237.634 432.322 239.41 431.968 241.151 432.084C241.728 432.123 241.67 432.179 242.078 432.531L241.693 432.466C239.238 434.178 236.414 435.568 233.844 437.128C229.446 439.57 225.52 442.978 220.918 445.05C216.653 440.868 217.528 436.54 217.445 431.236Z"/>
	<path fill="#FEEACA" d="M171.986 157.304C176.004 157.164 180.198 157.324 184.192 157.775C186.027 157.982 187.815 158.435 189.66 158.545C190.321 159.177 191.121 159.858 191.54 160.688C192.121 161.838 192.171 163.34 191.755 164.548C191.001 166.733 189.136 167.936 187.131 168.846C183.525 169.663 179.698 170.619 175.976 170.234C173.598 169.987 171.326 169.137 169.802 167.215C168.051 165.006 168.259 162.687 168.539 160.074C169.535 158.548 170.295 157.999 171.986 157.304Z"/>
	<path fill="#E1CAA3" d="M177.911 172.446C181.215 171.795 184.498 170.992 187.803 170.379C193.405 182.612 199.164 181.283 208.193 188.791C212.311 192.214 213.876 196.77 219.326 198.778C221.606 199.618 225.056 199.639 227 200.918C224.553 204.856 222.542 209.026 219.957 212.888C213.184 210.61 206.978 207.004 203.31 200.621C202.253 198.782 201.718 196.72 200.642 194.878L200.478 194.602C198.921 194.038 197.118 194.015 195.65 193.298C190.366 190.718 188.582 182.457 184.915 178.171C182.974 175.902 180.497 175.546 177.911 172.446Z"/>
	<path fill="#FE881F" d="M297.386 364.429C298.199 365.182 308.887 399.625 310.089 403.736C311.25 407.707 312.104 411.769 313.343 415.716C308.966 415.814 304.611 416.028 300.228 416.042L297.681 415.949C293.872 406.221 289.397 397.099 284.159 388.069C288.8 380.378 293.041 372.298 297.386 364.429Z"/>
	<path fill="#FE881F" d="M259.093 63.1707C261.088 63.7004 263.334 63.7004 265.388 63.9854C270.603 64.709 275.976 66.6349 280.3 69.6672C282.632 71.3032 286.172 74.0846 286.574 77.0798C286.764 78.4964 286.198 79.7358 285.334 80.8287C283.611 83.009 280.967 84.6475 278.606 86.04C270.4 90.8784 262.074 93.3514 252.628 94.4598C247.511 94.8228 242.579 95.2167 237.477 94.3923C233.563 93.7597 228.04 92.3313 225.719 88.7788C225.216 88.0101 225.096 87.1625 225.342 86.2732C225.634 85.2184 226.692 84.3895 227.52 83.753C232.656 79.8035 239.11 77.7623 244.525 74.2758C249.689 70.9505 253.659 66.5272 259.093 63.1707Z"/>
	<path fill="#E1CAA3" d="M301.361 20.4451C311.598 21.1865 320.662 26.598 327.299 34.2795C337.226 45.7693 338.58 61.6028 337.452 76.0694C336.128 93.0442 329.384 110.485 324.34 126.65L313.999 159.667C312.967 162.919 312.11 166.221 311.021 169.456C310.53 165.613 309.886 161.779 309.444 157.934C309.175 155.598 309.204 152.862 308.613 150.602C308.521 150.251 308.326 150.011 308.092 149.746C308.546 146.611 309.929 143.236 310.899 140.196L317.788 119.07C321.676 106.736 325.621 93.6522 326.838 80.741C327.204 76.8556 327.154 72.7792 327.134 68.8726C327.068 56.4617 325.429 46.3561 317.946 35.9896C315.79 33.003 313.076 30.3158 310.322 27.8825C308.067 25.8901 302.655 23.0733 301.453 20.6455C301.42 20.5796 301.391 20.5119 301.361 20.4451Z"/>
	<path fill="#E1CAA3" d="M310.254 172.169L310.368 172.665C312.035 179.704 314.797 186.474 317.816 193.03C322.897 204.066 333.912 219.421 326.47 231.654C325.645 233.01 324.568 234.292 323.436 235.402C329.111 246.079 328.87 260.998 325.422 272.363C323.86 277.511 321.678 282.05 316.754 284.689C312.721 286.851 305.034 289.271 300.632 287.917C299.199 287.476 297.884 286.743 296.703 285.826C294.379 284.021 292.478 281.657 290.374 279.607C288.632 277.909 286.645 276.406 285.013 274.603C284.229 273.737 283.478 272.739 282.94 271.7Q282.715 271.258 282.523 270.801C284.511 270.929 286.174 272.083 288.213 271.914C291.019 271.681 293.177 269.909 296.18 270.079C299.356 270.26 301.081 272.295 304.559 272.209C308.224 268.041 309.718 261.728 313.094 257.113C313.183 255.721 313.288 254.341 312.991 252.963C311.976 248.25 309.251 245.311 310.45 240.129C311.239 236.718 313.113 233.622 314.262 230.327C316.622 223.557 312.612 220.395 309.92 214.726C309.954 209.686 312.744 205.623 311.911 200.437C308.918 197.338 305.029 194.259 302.855 190.542C303.489 185.465 306.235 181.145 308.297 176.554C308.971 175.053 309.301 173.536 310.254 172.169Z"/>
	<path fill="#FE881F" d="M283.74 334.107C290.38 333.539 298.806 335.178 304.836 337.826C307.877 339.161 311.124 341.547 312.265 344.776C312.576 345.659 312.68 346.694 312.156 347.522C311.78 348.117 311.124 348.496 310.448 348.644C308.778 349.008 306.924 348.344 305.525 347.472C305.442 347.42 305.36 347.366 305.277 347.313C301.355 353.36 298.136 359.752 294.679 366.056L280.327 391.888L269.072 411.876C266.136 417.018 263.118 422.087 260.574 427.44C260.954 431.009 261.974 433.765 260.63 437.354C257.333 446.156 247.44 452.543 239.29 456.306C241.079 453.907 242.651 451.353 244.361 448.898C247.334 444.629 250.306 440.519 252.85 435.966C252.772 436.015 252.694 436.065 252.614 436.112L252.214 436.345C248.556 438.502 244.019 439.852 240.062 441.402C237.574 442.309 221.468 448.559 220.139 448.256L220.208 447.978C222.516 446.68 224.59 444.887 226.791 443.406C230.054 441.209 233.49 439.248 236.869 437.237C238.642 436.182 244.939 432.911 246.025 431.576L245.883 431.124C243.765 430.355 219.992 429.513 216.48 429.69C225.897 424.903 241.841 420.099 252.127 422.603Q261.926 396.822 271.361 370.905Q274.572 362.029 278.01 353.238C279.255 349.993 280.336 346.304 282.129 343.343C279.255 342.661 277.629 341.874 275.448 339.851C276.131 337.675 277.265 336.322 278.953 334.861C280.548 334.541 282.124 334.294 283.74 334.107Z"/>
	<path fill="#FEEACA" d="M176.534 142.685C176.319 138.6 175.046 129.698 177.139 126.327C177.557 126.061 177.639 125.993 178.158 126.113C182.353 127.083 188.996 137.477 191.93 140.791C200.099 150.021 211.417 157.408 223.955 158.407C226.232 158.588 230.731 159.193 232.793 158.038C234.781 156.925 237.129 153.833 239.816 152.101C244.906 148.82 250.424 146.36 255.604 143.272C259.702 140.829 263.485 137.755 267.267 134.853C263.491 142.692 259.476 150.263 254.957 157.709C246.056 172.374 235.995 186.318 227 200.918C225.056 199.639 221.606 199.618 219.326 198.778C213.876 196.77 212.311 192.214 208.193 188.791C199.164 181.283 193.405 182.612 187.803 170.379C188.305 170.157 188.785 169.936 189.25 169.641C191.432 168.252 193.155 165.972 193.706 163.426C194.011 162.017 193.922 160.469 193.069 159.258C190.852 156.109 185.674 156.456 182.262 155.837C182.321 152.557 181.9 149.627 182.359 146.313C182.992 145.645 183.682 145.03 184.354 144.401C185.124 144.547 185.997 144.672 186.708 145.009C189.308 146.241 193.006 151.318 196.289 153.494C196 152.615 195.661 151.764 195.226 150.945C193.012 146.774 188.723 143.996 184.341 142.617C183.207 143.112 182.301 143.65 181.304 144.376C179.959 148.448 180.398 151.885 180.519 156.084C178.82 155.752 177.187 155.974 175.505 155.711C174.365 155.533 173.999 155.01 173.364 154.098C172 151.995 166.843 146.987 164.803 144.801C163.918 143.851 163.544 143.791 162.287 143.743C161.295 142.114 159.488 139.209 160.091 137.244C160.257 136.704 160.6 136.348 161.142 136.185C164.798 135.084 173.001 141.25 176.534 142.685Z"/>
	<path fill="#E1CAA3" d="M380.706 254.363C383.395 254.243 386.037 253.906 388.583 252.985C388.566 253.079 388.548 253.172 388.532 253.265C388.147 255.548 388.186 257.92 388.032 260.231C387.702 265.195 387.382 270.136 386.645 275.06Q386.476 276.22 386.278 277.376Q386.08 278.532 385.853 279.682Q385.626 280.833 385.371 281.977Q385.115 283.122 384.83 284.259Q384.545 285.397 384.232 286.527Q383.918 287.657 383.577 288.778Q383.235 289.9 382.865 291.013Q382.495 292.126 382.097 293.229Q381.699 294.332 381.274 295.424Q380.848 296.517 380.395 297.599Q379.942 298.68 379.462 299.75Q378.982 300.82 378.475 301.877Q377.968 302.935 377.434 303.979Q376.901 305.023 376.341 306.054Q375.781 307.084 375.196 308.1Q374.61 309.116 374 310.117Q373.389 311.118 372.753 312.103Q372.117 313.088 371.456 314.057Q370.795 315.026 370.11 315.978Q369.425 316.93 368.717 317.864Q368.008 318.798 367.276 319.714Q366.544 320.63 365.789 321.528Q365.034 322.425 364.257 323.303Q363.48 324.181 362.681 325.039Q361.881 325.897 361.061 326.735Q360.24 327.572 359.399 328.389Q358.557 329.206 357.696 330.001Q356.834 330.796 355.952 331.57Q355.071 332.343 354.17 333.094Q353.269 333.844 352.35 334.572Q351.43 335.3 350.492 336.004Q349.555 336.708 348.6 337.389C338.693 344.57 327.571 349.436 315.766 352.521C313.006 353.242 310.072 353.308 307.353 354.113C306.024 354.506 304.724 354.147 303.386 354.493L303.187 354.294C303.79 352.556 304.811 350.695 305.862 349.189C308.185 350.412 309.239 350.244 311.789 350.271L313.73 348.32C313.916 345.119 313.722 342.947 311.475 340.454C306.185 334.585 294.814 332.555 287.282 332.3C283.972 332.188 279.057 332.298 276.47 334.625C275.107 335.851 274.196 337.724 274.189 339.571C274.184 340.713 274.638 341.596 275.472 342.357C276.595 343.383 278.234 343.871 279.586 344.539C278.736 346.844 277.295 352.215 275.647 353.785C272.734 353.732 269.411 352.47 266.597 351.696C250.614 347.298 235.982 340.015 224.268 328.017C223.984 327.727 223.722 327.412 223.466 327.097C225.183 327.075 227.154 327.844 228.818 328.277C233.125 329.398 237.798 330.881 242.261 331.099C245.386 331.252 249.151 331.617 252.235 331.167C255.925 330.63 259.423 328.812 263.267 329.194C266.213 329.486 269.459 331.983 272.301 331.736C277.851 331.253 281.877 324.647 288.126 325.131C295.748 325.722 301.393 331.581 309.535 332.121C329.76 333.462 331.558 325.567 344.846 314.009C355.922 314.109 354.008 297.55 361.997 291.966L364.925 291.916C366.168 288.956 367.909 286.376 368.721 283.212C369.094 281.755 369.104 280.224 369.184 278.73C369.395 274.77 369.994 271.477 371.893 267.937C373.571 264.81 380.59 257.12 380.706 254.363Z"/>
	<path fill="#FEEACA" d="M252.58 47.8763C254.452 40.0183 257.64 34.9088 264.088 29.942C274.396 22.0017 288.539 18.7228 301.361 20.4451C301.391 20.5119 301.42 20.5796 301.453 20.6455C302.655 23.0733 308.067 25.8901 310.322 27.8825C313.076 30.3158 315.79 33.003 317.946 35.9896C325.429 46.3561 327.068 56.4617 327.134 68.8726C327.154 72.7792 327.204 76.8556 326.838 80.741C325.621 93.6522 321.676 106.736 317.788 119.07L310.899 140.196C309.929 143.236 308.546 146.611 308.092 149.746C306.235 152.153 307.176 156.525 307.545 159.344C308.001 162.829 308.807 169.11 310.254 172.169C309.301 173.536 308.971 175.053 308.297 176.554C306.235 181.145 303.489 185.465 302.855 190.542C305.029 194.259 308.918 197.338 311.911 200.437C312.744 205.623 309.954 209.686 309.92 214.726C312.612 220.395 316.622 223.557 314.262 230.327C313.113 233.622 311.239 236.718 310.45 240.129C309.251 245.311 311.976 248.25 312.991 252.963C313.288 254.341 313.183 255.721 313.094 257.113C309.718 261.728 308.224 268.041 304.559 272.209C301.081 272.295 299.356 270.26 296.18 270.079C293.177 269.909 291.019 271.681 288.213 271.914C286.174 272.083 284.511 270.929 282.523 270.801C279.702 266.519 279.62 261.908 278.846 257.01C269.804 247.481 268.524 238.365 272.58 225.895C273.751 222.294 275.508 218.701 276.286 215.002C276.78 212.66 276.386 210.071 276.42 207.682C276.464 204.58 277.151 201.162 277.919 198.168C282.009 182.224 291.634 168.335 292.755 151.548C292.843 150.235 293.134 147.805 292.515 146.625C292.231 146.085 292.156 146.045 291.587 145.847L291.278 146.128C290.763 147.664 291.067 149.753 290.973 151.394C290.782 154.747 290.435 158.164 289.585 161.418C286.394 173.639 279.977 184.713 276.5 196.851C275.547 200.175 274.979 203.79 274.816 207.243C274.672 210.296 274.849 213.301 274.07 216.284C271.884 224.652 267.953 230.612 268.91 240.151C269.405 245.086 270.575 249.62 273.836 253.469C274.795 254.599 276.285 255.957 276.84 257.337C278.075 260.407 277.815 264.439 279.017 267.923Q279.497 269.349 280.18 270.689Q280.862 272.03 281.733 273.257C284.357 276.91 294.241 286.904 298.11 288.693C303.355 291.118 308.531 289.546 313.651 287.708C318.788 285.863 322.563 283.616 324.949 278.454C326.252 275.634 327.02 272.555 327.707 269.535C330.162 258.739 330.01 247.97 326.237 237.485C335.102 239.93 340.635 237.952 348.527 234.034C349.373 236.515 349.638 239.803 350.866 242.039C353.947 242.821 356.831 238.156 359.267 237.157C360.519 238.717 361.91 244.5 362.206 246.576C365.959 244.942 367.986 243.176 370.666 240.113C372.499 242.692 373.716 246.879 373.457 250.009C373.446 250.135 373.433 250.261 373.422 250.387L373.831 250.763C375.086 251.063 376.226 250.318 377.464 250.171C378.135 250.091 378.689 250.225 379.217 250.644C380.464 251.635 380.519 252.897 380.706 254.363C380.59 257.12 373.571 264.81 371.893 267.937C369.994 271.477 369.395 274.77 369.184 278.73C369.104 280.224 369.094 281.755 368.721 283.212C367.909 286.376 366.168 288.956 364.925 291.916L361.997 291.966C354.008 297.55 355.922 314.109 344.846 314.009C331.558 325.567 329.76 333.462 309.535 332.121C301.393 331.581 295.748 325.722 288.126 325.131C281.877 324.647 277.851 331.253 272.301 331.736C269.459 331.983 266.213 329.486 263.267 329.194C259.423 328.812 255.925 330.63 252.235 331.167C249.151 331.617 245.386 331.252 242.261 331.099C237.798 330.881 233.125 329.398 228.818 328.277C227.154 327.844 225.183 327.075 223.466 327.097Q219.858 323.325 216.751 319.13C207.829 306.943 203.544 291.782 203.452 276.773C203.424 272.109 203.506 267.507 204.098 262.872C208.859 225.614 233.715 194.471 253.108 163.689C257.775 156.282 262.696 148.805 266.541 140.925C268.11 137.71 269.466 134.296 270.799 130.975C274.779 121.06 277.318 110.063 277.261 99.3466C277.244 96.1694 275.991 92.7069 276.52 89.5768C276.685 88.6051 282.26 85.6609 283.447 84.7858C286.604 82.4578 288.077 80.7615 288.67 76.8136C288.6 76.6744 288.528 76.536 288.459 76.3962C287.528 74.5045 286.208 72.8541 284.965 71.1589C288.518 70.9991 291.699 70.526 294.907 68.9134C301.819 65.4397 305.564 58.8784 307.938 51.8361C298.707 51.5056 289.379 50.5529 280.159 49.9003C270.974 49.2501 261.733 48.8837 252.58 47.8763Z"/>
</svg>